<svg width="240" height="48" viewBox="0 0 240 48" fill="none" xmlns="http://www.w3.org/2000/svg">
<path d="M83.3994 0H90.4921L93.7709 36.8908H93.9047L97.3841 0H105.414L108.893 36.8908H109.027L112.306 0H118.662L113.911 47.999H104.744L101.399 15.6338H101.265L97.9193 47.999H88.1501L83.3994 0Z" fill="#2F2F2F"/>
<path d="M127.158 0H137.128L144.756 47.999H137.395L136.057 38.4677V38.605H127.693L126.355 47.999H119.53L127.158 0ZM135.187 32.0909L131.908 8.36555H131.775L128.563 32.0909H135.187Z" fill="#2F2F2F"/>
<path d="M148.327 0H155.687V41.1419H167.798V47.999H148.327V0Z" fill="#2F2F2F"/>
<path d="M171.328 0H178.688V41.1419H190.799V47.999H171.328V0Z" fill="#2F2F2F"/>
<path d="M194.328 0H214.402V6.85701H201.689V19.5425H211.792V26.3995H201.689V41.1419H214.402V47.999H194.328V0Z" fill="#2F2F2F"/>
<path d="M224.39 6.85701H216.695V0H239.445V6.85701H231.751V47.999H224.39V6.85701Z" fill="#2F2F2F"/>
<path d="M7.62796 0.000267023H17.5979L25.2259 47.9993H17.8655L16.5273 38.468V38.6052H8.1633L6.82508 47.9993H0L7.62796 0.000267023ZM15.6574 32.0911L12.3787 8.36582H12.245L9.03319 32.0911H15.6574Z" fill="#F96D6B"/>
<path d="M57.4334 0.000267023H64.7938V20.2284L74.1615 0.000267023H81.5219L72.7562 17.6228L81.6558 47.9993H73.9609L67.738 26.6056L64.7939 32.7084V47.9996H57.4334V0.000267023Z" fill="#F96D6B"/>
<path d="M52.6935 48H45.3331V41.1428H52.6935V48Z" fill="#F96D6B"/>
<path d="M29.6092 27.4265H52.6939V34.2835H29.6092V27.4265Z" fill="#F96D6B"/>
<path d="M29.6092 47.9975V27.4265H36.9696V47.9975H29.6092Z" fill="#F96D6B"/>
<path d="M52.6935 0.000267023V27.4283H45.3331V0.000267023H52.6935Z" fill="#F96D6B"/>
<path d="M52.6939 6.85728H33.6239V0.000267023H52.6935L52.6939 6.85728Z" fill="#F96D6B"/>
<path d="M29.6092 19.5425V0H36.9696V19.5425H29.6092Z" fill="#F96D6B"/>
</svg>
