<svg width="229" height="30" viewBox="0 0 229 30" fill="none" xmlns="http://www.w3.org/2000/svg">
<path d="M0.190186 28.394V0.997835H13.1827C15.5614 0.997835 17.4748 1.67622 18.9227 3.03298C20.3965 4.36366 21.1334 6.03352 21.1334 8.04257C21.1334 9.97335 20.487 11.5388 19.1942 12.7391C18.5995 13.2609 17.9531 13.6523 17.255 13.9132V14.1089C18.16 14.2915 19.0003 14.6568 19.7759 15.2047C21.4566 16.431 22.2969 18.2183 22.2969 20.5665C22.2969 22.8887 21.4824 24.7803 19.8535 26.2415C18.2246 27.6765 15.9364 28.394 12.9888 28.394H0.190186ZM3.68072 12.5434H12.9888C14.4367 12.5434 15.5744 12.165 16.4018 11.4084C17.2291 10.6256 17.6428 9.63416 17.6428 8.43394C17.6428 7.23373 17.2291 6.25529 16.4018 5.49864C15.5744 4.71589 14.4367 4.32452 12.9888 4.32452H3.68072V12.5434ZM3.68072 25.0673H12.9888C14.8504 25.0673 16.2854 24.6499 17.2938 23.815C18.3022 22.98 18.8063 21.8972 18.8063 20.5665C18.8063 19.1315 18.3022 17.9965 17.2938 17.1616C16.3113 16.3006 14.8763 15.8701 12.9888 15.8701H3.68072V25.0673Z" fill="#2F2F2F"/>
<path d="M33.3578 18.0226V0.997835H36.8483V18.0226C36.8483 20.423 37.5076 22.3277 38.8263 23.7367C40.1449 25.1456 41.8773 25.8501 44.0233 25.8501C46.1693 25.8501 47.9017 25.1456 49.2203 23.7367C50.539 22.3277 51.1983 20.423 51.1983 18.0226V0.997835H54.6888V18.0226C54.6888 21.4145 53.7063 24.1281 51.7413 26.1632C49.8021 28.1723 47.2294 29.1768 44.0233 29.1768C40.8172 29.1768 38.2316 28.1723 36.2666 26.1632C34.3274 24.1281 33.3578 21.4145 33.3578 18.0226Z" fill="#2F2F2F"/>
<path d="M65.3619 20.5665H68.8524C69.1368 21.558 69.6022 22.4451 70.2486 23.2279C71.6966 24.976 73.8167 25.8501 76.6092 25.8501C78.8327 25.8501 80.5134 25.4065 81.651 24.5194C82.8145 23.6323 83.3963 22.5104 83.3963 21.1536C83.3963 20.0056 82.9309 19.0924 82.0001 18.414C81.0693 17.7356 79.7506 17.1485 78.0442 16.6528C77.7339 16.5484 77.2297 16.4049 76.5316 16.2223C75.8593 16.0397 75.3293 15.8961 74.9415 15.7918C74.5536 15.6874 74.0365 15.5309 73.3901 15.3221C72.7437 15.1134 72.2266 14.9308 71.8388 14.7742C71.4509 14.5916 70.9855 14.3698 70.4426 14.1089C69.8996 13.8219 69.46 13.5479 69.1239 13.287C68.8136 13.0261 68.4646 12.713 68.0768 12.3477C67.7148 11.9563 67.4304 11.5519 67.2235 11.1344C67.0425 10.717 66.8745 10.2473 66.7193 9.72548C66.59 9.20365 66.5254 8.64268 66.5254 8.04257C66.5254 5.90306 67.4174 4.0636 69.2015 2.5242C70.9855 0.984791 73.3255 0.215088 76.2213 0.215088C80.048 0.215088 82.9438 1.49358 84.9089 4.05055C85.7362 5.17249 86.3309 6.43794 86.6929 7.84688H83.2024C82.9697 7.11632 82.556 6.3988 81.9613 5.69433C80.5392 4.25929 78.6259 3.54177 76.2213 3.54177C74.2821 3.54177 72.7566 3.98533 71.6448 4.87244C70.5589 5.73346 70.0159 6.79017 70.0159 8.04257C70.0159 8.64268 70.184 9.1906 70.5201 9.68634C70.8562 10.1821 71.257 10.5995 71.7224 10.9387C72.1878 11.2518 72.8342 11.578 73.6616 11.9172C74.5148 12.2303 75.2647 12.4781 75.911 12.6608C76.5574 12.8434 77.4107 13.0652 78.4708 13.3261C79.6601 13.6392 80.7073 13.9915 81.6122 14.3828C82.5172 14.7742 83.3963 15.2699 84.2495 15.8701C85.1028 16.4702 85.7492 17.2138 86.1887 18.1009C86.6541 18.988 86.8868 20.0056 86.8868 21.1536C86.8868 23.3975 85.9689 25.3022 84.1332 26.8677C82.2974 28.4071 79.7894 29.1768 76.6092 29.1768C72.4464 29.1768 69.3308 27.7417 67.2623 24.8717C66.3573 23.6454 65.7239 22.2103 65.3619 20.5665Z" fill="#2F2F2F"/>
<path d="M97.9265 28.394V0.997835H101.417V28.394H97.9265Z" fill="#2F2F2F"/>
<path d="M113.828 28.394V0.997835H118.87L132.211 24.0889H132.289L132.25 23.6975V0.997835H135.741V28.394H130.699L117.357 5.30295H117.28L117.318 5.69433V28.3549L113.828 28.394Z" fill="#2F2F2F"/>
<path d="M148.136 28.394V0.997835H167.14V4.32452H151.627V12.9347H164.231V16.2614H151.627V25.0673H167.14V28.394H148.136Z" fill="#2F2F2F"/>
<path d="M176.462 20.5665H179.952C180.237 21.558 180.702 22.4451 181.349 23.2279C182.797 24.976 184.917 25.8501 187.709 25.8501C189.933 25.8501 191.613 25.4065 192.751 24.5194C193.915 23.6323 194.496 22.5104 194.496 21.1536C194.496 20.0056 194.031 19.0924 193.1 18.414C192.169 17.7356 190.851 17.1485 189.144 16.6528C188.834 16.5484 188.33 16.4049 187.632 16.2223C186.959 16.0397 186.429 15.8961 186.042 15.7918C185.654 15.6874 185.137 15.5309 184.49 15.3221C183.844 15.1134 183.327 14.9308 182.939 14.7742C182.551 14.5916 182.086 14.3698 181.543 14.1089C181 13.8219 180.56 13.5479 180.224 13.287C179.914 13.0261 179.565 12.713 179.177 12.3477C178.815 11.9563 178.53 11.5519 178.324 11.1344C178.143 10.717 177.975 10.2473 177.819 9.72548C177.69 9.20365 177.625 8.64268 177.625 8.04257C177.625 5.90306 178.518 4.0636 180.302 2.5242C182.086 0.984791 184.426 0.215088 187.321 0.215088C191.148 0.215088 194.044 1.49358 196.009 4.05055C196.836 5.17249 197.431 6.43794 197.793 7.84688H194.302C194.07 7.11632 193.656 6.3988 193.061 5.69433C191.639 4.25929 189.726 3.54177 187.321 3.54177C185.382 3.54177 183.857 3.98533 182.745 4.87244C181.659 5.73346 181.116 6.79017 181.116 8.04257C181.116 8.64268 181.284 9.1906 181.62 9.68634C181.956 10.1821 182.357 10.5995 182.822 10.9387C183.288 11.2518 183.934 11.578 184.762 11.9172C185.615 12.2303 186.365 12.4781 187.011 12.6608C187.658 12.8434 188.511 13.0652 189.571 13.3261C190.76 13.6392 191.807 13.9915 192.712 14.3828C193.617 14.7742 194.496 15.2699 195.35 15.8701C196.203 16.4702 196.849 17.2138 197.289 18.1009C197.754 18.988 197.987 20.0056 197.987 21.1536C197.987 23.3975 197.069 25.3022 195.233 26.8677C193.398 28.4071 190.889 29.1768 187.709 29.1768C183.546 29.1768 180.431 27.7417 178.362 24.8717C177.457 23.6454 176.824 22.2103 176.462 20.5665Z" fill="#2F2F2F"/>
<path d="M207.475 20.5665H210.966C211.25 21.558 211.716 22.4451 212.362 23.2279C213.81 24.976 215.93 25.8501 218.723 25.8501C220.946 25.8501 222.627 25.4065 223.764 24.5194C224.928 23.6323 225.51 22.5104 225.51 21.1536C225.51 20.0056 225.044 19.0924 224.113 18.414C223.183 17.7356 221.864 17.1485 220.158 16.6528C219.847 16.5484 219.343 16.4049 218.645 16.2223C217.973 16.0397 217.443 15.8961 217.055 15.7918C216.667 15.6874 216.15 15.5309 215.503 15.3221C214.857 15.1134 214.34 14.9308 213.952 14.7742C213.564 14.5916 213.099 14.3698 212.556 14.1089C212.013 13.8219 211.573 13.5479 211.237 13.287C210.927 13.0261 210.578 12.713 210.19 12.3477C209.828 11.9563 209.544 11.5519 209.337 11.1344C209.156 10.717 208.988 10.2473 208.833 9.72548C208.703 9.20365 208.639 8.64268 208.639 8.04257C208.639 5.90306 209.531 4.0636 211.315 2.5242C213.099 0.984791 215.439 0.215088 218.335 0.215088C222.161 0.215088 225.057 1.49358 227.022 4.05055C227.85 5.17249 228.444 6.43794 228.806 7.84688H225.316C225.083 7.11632 224.669 6.3988 224.075 5.69433C222.653 4.25929 220.739 3.54177 218.335 3.54177C216.395 3.54177 214.87 3.98533 213.758 4.87244C212.672 5.73346 212.129 6.79017 212.129 8.04257C212.129 8.64268 212.297 9.1906 212.633 9.68634C212.97 10.1821 213.37 10.5995 213.836 10.9387C214.301 11.2518 214.948 11.578 215.775 11.9172C216.628 12.2303 217.378 12.4781 218.024 12.6608C218.671 12.8434 219.524 13.0652 220.584 13.3261C221.773 13.6392 222.821 13.9915 223.726 14.3828C224.631 14.7742 225.51 15.2699 226.363 15.8701C227.216 16.4702 227.863 17.2138 228.302 18.1009C228.768 18.988 229 20.0056 229 21.1536C229 23.3975 228.082 25.3022 226.247 26.8677C224.411 28.4071 221.903 29.1768 218.723 29.1768C214.56 29.1768 211.444 27.7417 209.376 24.8717C208.471 23.6454 207.837 22.2103 207.475 20.5665Z" fill="#2F2F2F"/>
</svg>
